<svg xmlns="http://www.w3.org/2000/svg" version="1.1" xmlns:xlink="http://www.w3.org/1999/xlink" xmlns:svgjs="http://svgjs.dev/svgjs" width="100%" height="100%" viewBox="0 0 1000 600"><rect width="1000" height="600" x="0" y="0" fill="#8d9eff"/><g><circle r="166.66666666666666" cx="377.37629191080725" cy="399.59855260532254" fill="#182747" transform="matrix(0.5932333890326466,0,0,0.5932333890326466,0,62.944815739992976)"/><path d="M343.8046982372466 427.3709928903305L352.2947214350272 457.8199574437266Q354.76977904522766 460.32379479358053 358.71260337775624 462.0793589124436Q362.6554277102848 463.83492303130674 370.5410763753421 463.83492303130674L370.5410763753421 463.83492303130674Q377.16041649564556 463.83492303130674 382.9739239056512 462.0793589124436Q388.7586515760034 460.32379479358053 393.01805304472043 456.8990057748148Q397.24867477378393 453.47421675604903 399.75251212363787 448.6104407546087Q402.2275697338383 443.74666475316826 402.2275697338383 437.5302409880137L402.2275697338383 437.5302409880137Q402.2275697338383 429.2416759678076 397.16233555482347 423.6296267353764Q392.06832163615513 418.0463572425987 384.52802984693983 413.7006165549211Q376.9589583180711 409.3260961275901 368.03723902548813 405.1818136174871Q359.1442994725586 401.03753110738404 351.57522794368987 395.3391426559923Q344.0061564148211 389.6407542046006 338.9409222358062 381.6687663205829Q333.8469083171379 373.69677843656524 333.8469083171379 361.666847261405L333.8469083171379 361.666847261405Q333.8469083171379 352.97536588605 336.9551201997152 346.12578784851854Q340.0633320822925 339.3049895506406 345.7617205336842 334.52755276816066Q351.46010898507586 329.7788957253343 359.3457576501331 327.1887191565198Q367.2026265755368 324.5985425877054 376.9589583180711 324.5985425877054L376.9589583180711 324.5985425877054Q389.5932640259547 324.5985425877054 400.06908925982634 326.555564884143Q410.5161347540444 328.5125871805805 416.53110034162455 331.4193408855834L416.53110034162455 331.4193408855834Q416.53110034162455 334.9592488629631 416.01306502786167 339.621566686829Q415.4950297140988 344.2838845106949 414.77553622276145 349.2339997310958Q414.0560427314241 354.2128946911502 413.2214302814728 358.87521251501613Q412.3868178315215 363.53753033888205 411.5522053815702 367.07743831626175L411.5522053815702 367.07743831626175L406.17039406636695 367.07743831626175L397.8818290461608 338.6718352782637Q394.14046289120665 337.0313901180146 388.442074439815 336.1967776680633Q382.7436859884233 335.36216521811195 376.3258040456942 335.36216521811195L376.3258040456942 335.36216521811195Q365.7636395928621 335.36216521811195 359.3457576501331 341.26201184707816Q352.92787570740404 347.1618584760443 352.92787570740404 357.75280266852985L352.92787570740404 357.75280266852985Q352.92787570740404 366.24282586631045 357.9931098864189 372.02755353666265Q363.05834406543374 377.84106094666834 370.7425345529165 382.38825981192025Q378.39794530074573 386.9642384168257 387.20454563471475 391.19486014588927Q396.01114596868376 395.4542616146063 403.6953364561665 401.03753110738404Q411.35074720399575 406.64958033981526 416.4159813830106 414.3049910876445Q421.50999530167894 421.98918157512725 421.50999530167894 433.38595847791066L421.50999530167894 433.38595847791066Q421.50999530167894 442.7105941256425 418.0852062829132 450.36600487347175Q414.6604172641475 458.021415621301 408.2425353214185 463.4320066761578Q401.8246533786894 468.8138179913611 392.50001773095755 471.7205716963639Q383.17538208322566 474.5985456617133 371.3469090856399 474.5985456617133L371.3469090856399 474.5985456617133Q358.30968702260736 474.5985456617133 347.94898074734965 471.490333779136Q337.58827447209205 468.3821218965587 333.24253378441455 464.8709936588325L333.24253378441455 464.8709936588325Q333.443991961989 461.3598654211063 333.9620272757519 456.3809704610519Q334.4800625895148 451.40207550099757 335.19955608085206 446.10660340475476Q335.91904957218946 440.83991104816545 336.75366202214076 435.8610160881111Q337.58827447209205 430.8821211280567 338.42288692204335 427.3709928903305L338.42288692204335 427.3709928903305L343.8046982372466 427.3709928903305Z " fill="#54bab9" transform="matrix(0.5932333890326466,0,0,0.5932333890326466,0,62.944815739992976)"/><path d="M637.6949155941185 428.45983339808646L645.9891982748288 458.2067861987356Q648.4071925478494 460.65289668423316 652.2591136571962 462.3679856453292Q656.111034766543 464.0830746064252 663.8148769852367 464.0830746064252L663.8148769852367 464.0830746064252Q670.2816058549429 464.0830746064252 675.9610807752937 462.3679856453292Q681.6124394831675 460.65289668423316 685.7736389297611 457.3070673994721Q689.9067221638777 453.9612381147109 692.3528326493754 449.2095982061007Q694.770826922396 444.45795829749034 694.770826922396 438.3848564024618L694.770826922396 438.3848564024618Q694.770826922396 430.2873872090904 689.8223735264468 424.80472577607856Q684.8458039180207 419.35018055554366 677.4793562490509 415.10463247151904Q670.084792367604 410.83096817501746 661.368766499739 406.7822335783318Q652.680856844351 402.7334989816461 645.2862929629041 397.16648891120326Q637.8917290814574 391.5994788407604 632.9432756855082 383.8112879846359Q627.966706077082 376.02309712851127 627.966706077082 364.27052031313195L627.966706077082 364.27052031313195Q627.966706077082 355.7794241450828 631.0032570245962 349.0877655755606Q634.0398079721106 342.4242232185154 639.6068180425534 337.75693194733606Q645.1738281129963 333.11775688863366 652.8776703316898 330.58729776570516Q660.5533963379064 328.0568386427766 670.084792367604 328.0568386427766L670.084792367604 328.0568386427766Q682.427809645 328.0568386427766 692.6621109866221 329.9687410912115Q702.8682961157674 331.8806435396464 708.744584523457 334.72038099982177L708.744584523457 334.72038099982177Q708.744584523457 338.17867513449085 708.2384926988714 342.73350155576225Q707.7324008742855 347.28832797703365 707.029495562361 352.12431652307487Q706.3265902504364 356.9884212815931 705.5112200886039 361.5432477028645Q704.6958499267714 366.09807412413596 703.8804797649389 369.556368258805L703.8804797649389 369.556368258805L698.6227480317427 369.556368258805L690.5252788383714 341.8056665440218Q686.8701712163635 340.2030424328337 681.3031611459206 339.3876722710011Q675.7361510754779 338.57230210916856 669.4662356931103 338.57230210916856L669.4662356931103 338.57230210916856Q659.1475857140572 338.57230210916856 652.8776703316898 344.3361256669503Q646.6077549493224 350.09994922473203 646.6077549493224 360.4467154162621L646.6077549493224 360.4467154162621Q646.6077549493224 368.7409980969724 651.5562083452716 374.3923568048462Q656.5046617412207 380.071831725197 664.0116904725755 384.51419329656045Q671.4906029914532 388.9846710804009 680.0941640094104 393.1177543145176Q688.6977250273675 397.2789537611112 696.2047537587222 402.7334989816461Q703.6836662776 408.21616041465796 708.6321196735491 415.6950729335357Q713.6086892819753 423.20210166489045 713.6086892819753 434.33612180577614L713.6086892819753 434.33612180577614Q713.6086892819753 443.44577464831895 710.2628599972142 450.9246871671967Q706.9170307124531 458.4035996860745 700.6471153300856 463.6894476317474Q694.3771999477183 468.9471793649434 685.2675471051755 471.78691682511885Q676.1578942626326 474.5985380728172 664.6021309345922 474.5985380728172L664.6021309345922 474.5985380728172Q651.8654866825184 474.5985380728172 641.7436501908041 471.56198712530295Q631.6218136990899 468.52543617778866 627.3762656150653 465.0952582555966L627.3762656150653 465.0952582555966Q627.5730791024042 461.6650803334046 628.07917092699 456.80097557488637Q628.5852627515757 451.9368708163681 629.2881680635003 446.76348772060305Q629.9910733754248 441.618220837315 630.8064435372573 436.75411607879676Q631.6218136990899 431.8900113202785 632.4371838609225 428.45983339808646L632.4371838609225 428.45983339808646L637.6949155941185 428.45983339808646ZM775.1550783940933 472.1805437997966L764.6114987152242 474.5985380728172L732.8401786162324 381.0840153743684Q730.0004411560569 380.071831725197 727.2731685457895 378.94718322611766Q724.545895935522 377.8506509395153 722.0997854500245 376.21991061585015L722.0997854500245 376.21991061585015L722.0997854500245 370.9621788826542L764.2178717405465 370.9621788826542L764.2178717405465 376.02309712851127Q761.3781342803711 377.6538374521764 758.5383968201957 378.94718322611766Q755.6986593600203 380.2686452125359 752.6621084125061 381.0840153743684L752.6621084125061 381.0840153743684L770.290973635575 440.1842940009888L772.9057813959346 454.77660827654347L773.3275245830893 454.77660827654347L776.3640755306036 439.79066702631104L798.2103726252201 372.98654618099704L804.2834745202487 370.9621788826542L827.5636984511914 439.9874805136499L831.2188060731994 454.77660827654347L831.6124330478772 454.77660827654347L834.6489839953914 439.9874805136499L850.2534819201176 381.0840153743684Q848.0323011344358 380.6903883996906 845.0800988243525 379.4532750507034Q842.1560127267461 378.24427791419305 839.1194617792319 376.21991061585015L839.1194617792319 376.21991061585015L839.1194617792319 370.9621788826542L873.5337058510603 370.9621788826542L873.5337058510603 376.21991061585015Q869.2881577670357 379.05964807602555 861.9779425230199 381.0840153743684L861.9779425230199 381.0840153743684L833.2431733715423 472.1805437997966L822.5027802053344 474.5985380728172L802.4840369217217 417.32581325720076L798.6321158123749 400.5123181959644L798.0135591378812 400.5123181959644L793.3743840791789 417.32581325720076L775.1550783940933 472.1805437997966ZM924.7333287716481 467.1196255539395L924.7333287716481 472.1805437997966L879.8036212334277 472.1805437997966L879.8036212334277 467.1196255539395Q882.840172180942 465.4888852302744 886.0735366157951 464.392352943672Q889.3069010506483 463.26770444459265 893.1588221599951 462.25552079542126L893.1588221599951 462.25552079542126L893.1588221599951 382.7147556980335L879.8036212334277 381.0840153743684L879.8036212334277 375.8262836411724Q885.6799096411173 373.3801731556748 892.5683816979785 371.5807355571478Q899.4287375423626 369.75318174614387 906.3172095992236 368.54418460963353L906.3172095992236 368.54418460963353L911.3781278450808 368.54418460963353L911.3781278450808 462.25552079542126Q915.4268624417664 463.26770444459265 918.6602268766196 464.392352943672Q921.9217075239499 465.4888852302744 924.7333287716481 467.1196255539395L924.7333287716481 467.1196255539395ZM889.3069010506483 336.5479348108258L889.3069010506483 336.5479348108258Q889.3069010506483 331.0933895902909 892.8495438227483 327.8319089429607Q896.3921865948483 324.5985445081075 902.268475002538 324.5985445081075L902.268475002538 324.5985445081075Q908.1447634102276 324.5985445081075 911.5749413324197 327.8319089429607Q915.0332354670886 331.0933895902909 915.0332354670886 336.5479348108258L915.0332354670886 336.5479348108258Q915.0332354670886 342.0024800313607 911.5749413324197 345.15149582878286Q908.1447634102276 348.30051162620504 902.268475002538 348.30051162620504L902.268475002538 348.30051162620504Q896.3921865948483 348.30051162620504 892.8495438227483 345.15149582878286Q889.3069010506483 342.0024800313607 889.3069010506483 336.5479348108258ZM935.4737219378561 381.0840153743684L935.4737219378561 375.8262836411724Q943.1775641565497 370.9621788826542 951.6686603245988 368.9378115843113L951.6686603245988 368.9378115843113L951.6686603245988 351.7306895483971Q954.3115842974353 349.50950876271537 957.8542270695353 347.7944198016193Q961.3968698416353 346.05121462804635 964.8270477638273 344.44859051685825L964.8270477638273 344.44859051685825L969.8879660096845 344.44859051685825L969.8879660096845 370.9621788826542L1000.2534754848273 370.9621788826542L1000.2534754848273 381.0840153743684L969.8879660096845 381.0840153743684L969.8879660096845 439.79066702631104Q969.8879660096845 451.9368708163681 973.7398871190312 456.99778906222525Q977.5918082283781 462.0587073080824 985.2675342345947 462.0587073080824L985.2675342345947 462.0587073080824Q988.9226418566027 462.0587073080824 994.3771870771376 461.55261548349665Q999.8598485101494 461.0465236589109 1003.6836534070193 459.6407130350617L1003.6836534070193 459.6407130350617L1005.1175802433454 462.677263982576Q1003.4868399196803 464.476701581103 1000.562753822074 466.5010688794458Q997.6105515119907 468.52543617778866 993.8710952525519 470.3529899887926Q990.1316389931129 472.1805437997966 985.6892774217495 473.3895409363069Q981.2187996379091 474.5985380728172 976.5796245792067 474.5985380728172L976.5796245792067 474.5985380728172Q964.4334207891496 474.5985380728172 958.0510405568742 467.7381822284331Q951.6686603245988 460.84971017157204 951.6686603245988 445.4701419466618L951.6686603245988 445.4701419466618L951.6686603245988 381.0840153743684L935.4737219378561 381.0840153743684ZM1010.3753119765415 381.0840153743684L1010.3753119765415 375.8262836411724Q1018.0791541952351 370.9621788826542 1026.5702503632842 368.9378115843113L1026.5702503632842 368.9378115843113L1026.5702503632842 351.7306895483971Q1029.2131743361208 349.50950876271537 1032.7558171082208 347.7944198016193Q1036.2984598803207 346.05121462804635 1039.7286378025128 344.44859051685825L1039.7286378025128 344.44859051685825L1044.7895560483698 344.44859051685825L1044.7895560483698 370.9621788826542L1075.1550655235126 370.9621788826542L1075.1550655235126 381.0840153743684L1044.7895560483698 381.0840153743684L1044.7895560483698 439.79066702631104Q1044.7895560483698 451.9368708163681 1048.6414771577167 456.99778906222525Q1052.4933982670634 462.0587073080824 1060.1691242732802 462.0587073080824L1060.1691242732802 462.0587073080824Q1063.824231895288 462.0587073080824 1069.2787771158228 461.55261548349665Q1074.7614385488348 461.0465236589109 1078.5852434457047 459.6407130350617L1078.5852434457047 459.6407130350617L1080.0191702820307 462.677263982576Q1078.3884299583658 464.476701581103 1075.4643438607595 466.5010688794458Q1072.512141550676 468.52543617778866 1068.7726852912372 470.3529899887926Q1065.0332290317983 472.1805437997966 1060.5908674604348 473.3895409363069Q1056.1203896765944 474.5985380728172 1051.481214617892 474.5985380728172L1051.481214617892 474.5985380728172Q1039.335010827835 474.5985380728172 1032.9526305955596 467.7381822284331Q1026.5702503632842 460.84971017157204 1026.5702503632842 445.4701419466618L1026.5702503632842 445.4701419466618L1026.5702503632842 381.0840153743684L1010.3753119765415 381.0840153743684ZM1169.9067015709488 454.77660827654347L1172.7183228186473 458.00997271139664Q1171.115698707459 461.4401506335887 1167.6574045727898 464.476701581103Q1164.227226650598 467.5132525286173 1159.7848650792344 469.76254952677596Q1155.3143872953938 471.98373031245774 1150.056655562198 473.30519229887597Q1144.798923829002 474.5985380728172 1139.3162623959902 474.5985380728172L1139.3162623959902 474.5985380728172Q1127.394988305749 474.5985380728172 1118.2853354632061 470.85908181337834Q1109.1756826206633 467.1196255539395 1103.1025807256347 460.14680485964743Q1097.0294788306062 453.14586795287846 1093.8804630331838 443.44577464831895Q1090.7314472357616 433.71756513128247 1090.7314472357616 421.5713613412254L1090.7314472357616 421.5713613412254Q1090.7314472357616 395.64821343744615 1102.6808375384799 382.09619902353984Q1114.6302278411981 368.54418460963353 1136.5046411482917 368.54418460963353L1136.5046411482917 368.54418460963353Q1143.5899266924916 368.54418460963353 1150.4502825368759 370.4560870580685Q1157.3387545937367 372.36798950650336 1162.7089511768409 376.83846729034383Q1168.0791477599448 381.28082886170733 1171.4249770447059 388.67539274315413Q1174.74269011699 396.0699566246009 1174.74269011699 407.0071632781477L1174.74269011699 407.0071632781477Q1174.74269011699 410.4373412003397 1174.46152799222 413.9799839724397Q1174.1522496549733 417.5226267445397 1173.3368794931407 421.5713613412254L1173.3368794931407 421.5713613412254L1110.1878662698348 421.5713613412254Q1110.1878662698348 430.0624575092745 1112.2965822056085 437.45702139072137Q1114.4334143538592 444.8515852721681 1118.678962437884 450.306130492703Q1122.9245105219084 455.7887919257149 1129.4193556040918 458.90969151066014Q1135.886084473798 462.0587073080824 1144.602110341663 462.0587073080824L1144.602110341663 462.0587073080824Q1151.6873958858632 462.0587073080824 1158.969494917402 460.0343400097395Q1166.2515939489408 458.00997271139664 1169.9067015709488 454.77660827654347L1169.9067015709488 454.77660827654347ZM1135.6892709864592 377.4289077523605L1135.6892709864592 377.4289077523605Q1124.1335076584187 377.4289077523605 1118.0604057633902 385.245214820962Q1111.9873038683618 393.03340567708665 1110.7783067318514 412.65852198602147L1110.7783067318514 412.65852198602147L1155.3143872953938 412.65852198602147Q1155.5112007827329 410.83096817501746 1155.623665632641 409.11587921392146Q1155.7361304825488 407.40079025282546 1155.7361304825488 405.7700499291604L1155.7361304825488 405.7700499291604Q1155.7361304825488 392.83659218974776 1150.8720257240307 385.1327499710541Q1146.0079209655123 377.4289077523605 1135.6892709864592 377.4289077523605ZM1260.581486809222 386.1449336202255L1233.6742714687484 386.1449336202255Q1231.4249744705899 387.35393075673585 1228.1072613983056 391.0933870161747Q1224.7614321135445 394.8609594880906 1222.118508140708 402.14305851962945L1222.118508140708 402.14305851962945L1222.118508140708 462.25552079542126Q1226.1672427373937 462.677263982576 1230.2159773340795 463.7737962691784Q1234.264711930765 464.8984447682577 1238.3134465274509 467.1196255539395L1238.3134465274509 467.1196255539395L1238.3134465274509 472.1805437997966L1190.544001529055 472.1805437997966L1190.544001529055 467.1196255539395Q1194.1991091510629 465.0952582555966 1197.432473585916 464.0830746064252Q1200.6658380207691 463.07089095725377 1203.8992024556223 462.25552079542126L1203.8992024556223 462.25552079542126L1203.8992024556223 382.7147556980335L1190.544001529055 381.0840153743684L1190.544001529055 375.8262836411724Q1197.0107303987613 372.98654618099704 1203.8992024556223 371.271457219901Q1210.7876745124836 369.556368258805 1217.057589894851 368.54418460963353L1217.057589894851 368.54418460963353L1222.118508140708 368.54418460963353L1222.118508140708 389.99685472957236L1222.9338783025405 389.99685472957236Q1224.7614321135445 385.94812013288663 1228.1072613983056 381.89938553620095Q1231.4249744705899 377.8506509395153 1235.7829874045221 374.6172865046621Q1240.1410003384547 371.355805857332 1245.3143834342197 369.6407168962359Q1250.4596503175078 367.9256279351399 1255.9423117505198 368.54418460963353L1255.9423117505198 368.54418460963353Q1257.348122374369 371.1589923699931 1258.4727708734483 374.30800816741527Q1259.5693031600506 377.4289077523605 1260.581486809222 380.8872018870295L1260.581486809222 380.8872018870295L1260.581486809222 386.1449336202255ZM1268.2853290279156 460.65289668423316L1268.2853290279156 460.65289668423316Q1268.2853290279156 454.5797947892046 1272.1372501372628 450.9246871671967Q1275.9610550341324 447.2695795451888 1282.034156929161 447.2695795451888L1282.034156929161 447.2695795451888Q1288.3321885240052 447.2695795451888 1292.1559934208751 450.9246871671967Q1296.007914530222 454.5797947892046 1296.007914530222 460.65289668423316L1296.007914530222 460.65289668423316Q1296.007914530222 466.5010688794458 1292.1559934208751 470.15617650145373Q1288.3321885240052 473.81128412346163 1282.034156929161 473.81128412346163L1282.034156929161 473.81128412346163Q1275.9610550341324 473.81128412346163 1272.1372501372628 470.15617650145373Q1268.2853290279156 466.5010688794458 1268.2853290279156 460.65289668423316ZM1363.6274055373685 467.1196255539395L1363.6274055373685 472.1805437997966L1318.697697999148 472.1805437997966L1318.697697999148 467.1196255539395Q1321.7342489466623 465.4888852302744 1324.9676133815153 464.392352943672Q1328.2009778163685 463.26770444459265 1332.0528989257155 462.25552079542126L1332.0528989257155 462.25552079542126L1332.0528989257155 382.7147556980335L1318.697697999148 381.0840153743684L1318.697697999148 375.8262836411724Q1324.5458701943608 373.3801731556748 1331.4343422512218 371.5807355571478Q1338.322814308083 369.75318174614387 1345.2112863649438 368.54418460963353L1345.2112863649438 368.54418460963353L1350.2722046108013 368.54418460963353L1350.2722046108013 462.25552079542126Q1354.3209392074868 463.26770444459265 1357.5543036423398 464.392352943672Q1360.787668077193 465.4888852302744 1363.6274055373685 467.1196255539395L1363.6274055373685 467.1196255539395ZM1328.2009778163685 336.5479348108258L1328.2009778163685 336.5479348108258Q1328.2009778163685 331.0933895902909 1331.7436205884685 327.8319089429607Q1335.2862633605685 324.5985445081075 1341.1625517682583 324.5985445081075L1341.1625517682583 324.5985445081075Q1347.0388401759478 324.5985445081075 1350.46901809814 327.8319089429607Q1353.8991960203318 331.0933895902909 1353.8991960203318 336.5479348108258L1353.8991960203318 336.5479348108258Q1353.8991960203318 342.0024800313607 1350.46901809814 345.15149582878286Q1347.0388401759478 348.30051162620504 1341.1625517682583 348.30051162620504L1341.1625517682583 348.30051162620504Q1335.2862633605685 348.30051162620504 1331.7436205884685 345.15149582878286Q1328.2009778163685 342.0024800313607 1328.2009778163685 336.5479348108258ZM1379.6255304367726 421.5713613412254L1379.6255304367726 421.5713613412254Q1379.6255304367726 408.8066008766747 1382.9713597215334 398.9940427222072Q1386.2890727938177 389.1814845677398 1392.587104388662 382.4054773607867Q1398.8570197710294 375.6294701538335 1407.6573942763255 372.08682738173354Q1416.4577687816216 368.54418460963353 1427.1981619478292 368.54418460963353L1427.1981619478292 368.54418460963353Q1439.7379927125642 368.54418460963353 1448.847645555107 372.36798950650336Q1457.9572983976498 376.21991061585015 1463.7211219554315 383.2208475226192Q1469.5130617256902 390.19366821691125 1472.2403343359576 399.92187773394767Q1474.967606946225 409.6219710385072 1474.967606946225 421.5713613412254L1474.967606946225 421.5713613412254Q1474.967606946225 447.0727660578499 1462.0060329943356 460.84971017157204Q1449.044459042446 474.5985380728172 1427.1981619478292 474.5985380728172L1427.1981619478292 474.5985380728172Q1415.051958157772 474.5985380728172 1406.1391188025684 470.85908181337834Q1397.2262794473643 467.1196255539395 1391.3499910396747 460.14680485964743Q1385.5018188444622 453.14586795287846 1382.5496165343786 443.333309798411Q1379.6255304367726 433.5207516439436 1379.6255304367726 421.5713613412254ZM1399.0538332583683 421.5713613412254L1399.0538332583683 421.5713613412254Q1399.0538332583683 430.6810141837682 1400.7689222194642 438.7784833771396Q1402.4840111805604 446.875952570511 1406.251583652476 452.8365896156316Q1409.991039911915 458.8253428732292 1416.0641418069438 462.25552079542126Q1422.1372437019722 465.7138149300903 1430.6283398700214 465.7138149300903L1430.6283398700214 465.7138149300903Q1441.565546523568 465.7138149300903 1448.5383672178602 454.97342176388236Q1455.5393041246293 444.2330285976745 1455.5393041246293 421.5713613412254L1455.5393041246293 421.5713613412254Q1455.5393041246293 412.2648950113437 1453.8242151635334 404.2517744554032Q1452.0810099899602 396.26677011193976 1448.4540185804292 390.30613306681914Q1444.7989109584214 384.31737980922156 1439.1475522505475 380.8872018870295Q1433.4680773301968 377.4289077523605 1425.5674216241644 377.4289077523605L1425.5674216241644 377.4289077523605Q1413.618031321446 377.4289077523605 1406.335932289907 388.1693009185684Q1399.0538332583683 398.9096940847763 1399.0538332583683 421.5713613412254Z " fill="#eef1ff" transform="matrix(0.5932333890326466,0,0,0.5932333890326466,0,62.944815739992976)"/></g></svg>